<svg xmlns="http://www.w3.org/2000/svg"
shape-rendering="geometricPrecision"
width="4000" height="4000" viewBox="0 0 814 814"><rect width="100%" height="100%" fill="#FFFFFF" />
  <metadata>null</metadata>

<path d="
M 37.76 573.3
C 52.455 574.078 67.344 573.368 82.06 573.474
C 82.594 575.272 81.769 577.381 82.295 579.134
C 75.844 579.42 69.271 578.71 62.841 579.222
C 63.394 585.591 63.071 592.102 63.071 598.496
C 63.071 608.579 63.156 618.667 63.151 628.747
C 61.013 628.481 58.783 628.833 56.634 628.685
C 56.763 612.194 56.383 595.677 56.554 579.198
C 50.393 579.025 43.711 580.09 37.628 579.171
C 37.679 577.212 37.631 575.258 37.76 573.3 Z"
opacity="1" fill="rgb(15,23,65)" fill-rule="evenodd" />
<path d="
M 90.317 569.731
C 92.427 569.588 94.541 569.806 96.655 569.733
C 97.36 577.776 96.265 585.989 96.924 594.035
C 97.8 593.289 98.282 592.156 99.057 591.3
C 100.463 589.747 102.239 588.544 104.157 587.724
C 106.295 586.811 108.605 586.421 110.921 586.42
C 112.628 586.419 114.283 586.662 115.938 587.069
C 127.438 589.899 125.204 605.176 125.237 614.002
C 125.246 616.502 125.255 619.002 125.261 621.502
C 125.268 623.858 124.958 626.492 125.319 628.812
C 123.207 628.669 120.989 628.679 118.88 628.831
C 118.549 628.385 118.745 627.231 118.752 626.664
C 118.775 624.612 118.75 622.557 118.749 620.504
C 118.745 615.664 118.751 610.823 118.745 605.983
C 118.74 602.854 118.923 599.424 117.393 596.575
C 113.09 588.567 101.655 592.326 97.959 598.731
C 96.199 601.781 96.793 605.618 96.804 609
C 96.825 615.573 96.784 622.148 96.848 628.72
C 94.772 628.725 92.642 628.799 90.573 628.627
C 90.281 624.296 90.577 619.85 90.582 615.502
C 90.601 600.344 91.491 584.85 90.317 569.731 Z"
opacity="1" fill="rgb(14,20,62)" fill-rule="evenodd" />
<path d="
M 135.955 604.605
C 136.777 600.116 138.194 595.936 141.296 592.463
C 148.005 584.95 161.415 584.519 168.473 591.75
C 172.99 596.377 174.972 603.864 174.366 610.236
C 163.81 610.293 152.837 609.37 142.334 610.474
C 141.094 618.313 150.038 624.499 156.971 624.077
C 162.017 623.771 164.714 621.193 168.261 618.067
C 169.65 619.043 171.566 620.083 172.436 621.603
C 171.136 623.977 168.312 625.943 165.958 627.157
C 158.631 630.933 149.007 630.486 142.61 624.956
C 136.862 619.989 135.044 611.882 135.955 604.605 Z
M 142.45 602.579
C 142.248 603.496 142.112 604.419 142.011 605.352
C 147.838 605.353 153.678 605.29 159.51 605.274
C 162.277 605.267 165.49 604.828 168.209 605.291
C 167.506 601.593 166.823 597.932 164.041 595.143
C 159.399 590.49 151.016 590.701 146.399 595.292
C 144.283 597.397 143.371 599.825 142.45 602.579 Z"
opacity="1" fill="rgb(9,17,61)" fill-rule="evenodd" />
<path d="
M 198.235 622.058
C 200.129 618.841 201.647 615.475 203.407 612.196
C 204.667 612.213 205.944 613.588 207.059 614.175
C 209.679 615.555 212.306 616.805 215.167 617.616
C 218.72 618.623 223.283 619.507 226.827 618.015
C 230.024 616.669 231.379 612.723 228.697 610.059
C 226.297 607.673 222.233 607.028 219.102 606.205
C 211.008 604.077 201.927 601.318 200.43 591.81
C 200.11 589.775 200.207 587.56 200.65 585.549
C 203.583 572.202 219.147 569.905 230.428 572.889
C 233.416 573.68 236.418 574.675 239.142 576.156
C 239.773 576.499 241.581 577.18 241.765 577.876
C 240.514 581.389 238.784 584.702 237.603 588.248
C 237.448 588.436 236.163 587.291 235.887 587.13
C 234.859 586.532 233.74 586.07 232.64 585.624
C 228.351 583.886 223.218 582.295 218.551 583.166
C 216.633 583.524 214.083 584.797 213.74 586.938
C 213.064 591.144 217.248 592.567 220.449 593.538
C 227.303 595.618 236.761 597.101 240.951 603.613
C 245.021 609.937 244.085 619.231 238.454 624.335
C 235.173 627.31 230.668 628.809 226.372 629.497
C 219.491 630.597 212.104 629.36 205.736 626.629
C 203.131 625.512 200.834 623.609 198.272 622.557
C 198.26 622.391 198.248 622.224 198.235 622.058 Z"
opacity="1" fill="rgb(10,21,67)" fill-rule="evenodd" />
<path d="
M 247.498 587.608
C 247.489 587.385 247.481 587.161 247.473 586.938
C 249.624 585.842 252.154 587.164 254.302 586.409
C 254.339 582.539 253.921 578.327 254.546 574.502
C 258.446 574.374 263.11 573.768 266.958 574.452
C 266.737 578.365 267.339 582.342 267.082 586.223
C 270.314 586.668 273.693 585.909 276.92 586.401
C 276.495 589.53 276.608 592.79 276.746 595.934
C 273.522 596.184 270.103 596.31 266.867 596.14
C 267.036 601.418 266.8 606.744 266.837 612.03
C 266.851 614.003 266.556 616.858 268.217 618.274
C 270.147 619.92 273.062 618.988 275.198 618.366
C 275.678 618.873 275.775 620.317 275.952 621.008
C 276.4 622.755 277.869 625.065 277.819 626.837
C 275.243 628.22 272.984 629.316 270.013 629.644
C 268.277 629.836 266.521 629.838 264.793 629.557
C 263.334 629.32 261.917 628.856 260.572 628.243
C 252.495 624.566 254.62 612.887 254.603 605.751
C 254.598 603.341 254.436 600.896 254.489 598.496
C 254.505 597.732 254.86 596.593 254.268 596.022
C 252.176 595.839 250.014 595.846 247.918 595.988
C 247.465 595.029 247.699 593.706 247.698 592.656
C 247.697 590.973 247.474 589.283 247.498 587.608 Z"
opacity="1" fill="rgb(9,20,66)" fill-rule="evenodd" />
<path d="
M 454.805 285.835
C 453.569 287.547 451.5 288.668 449.888 289.998
C 446.902 292.462 443.965 294.985 440.977 297.447
C 433.789 303.37 426.599 309.292 419.421 315.227
C 415.162 318.748 410.47 321.9 406.519 325.768
C 402.613 328.38 399.004 331.667 395.423 334.703
C 389.396 339.812 383.217 344.741 377.156 349.81
C 373.352 352.99 369.485 356.096 365.702 359.302
C 363.447 361.213 360.778 362.959 358.967 365.318
C 349.872 374.748 344.546 387.334 342.966 400.243
C 342.092 407.386 342.549 414.606 342.584 421.778
C 342.633 431.685 342.668 441.593 342.685 451.501
C 342.698 458.834 342.679 466.167 342.669 473.5
C 342.665 475.831 342.609 478.17 342.686 480.5
C 342.712 481.269 342.482 482.454 342.745 483.149
C 335.554 482.35 328.128 480.208 321.35 477.716
C 275.491 460.859 245.075 411.536 252.517 362.881
C 253.721 355.005 255.564 347.258 258.506 339.841
C 269.433 312.282 291.304 290.555 318.997 279.914
C 328.555 276.242 338.36 273.988 348.562 273.071
C 351.87 272.773 355.187 272.653 358.505 272.792
C 359.58 272.837 360.589 272.876 361.648 273.037
C 361.704 273.046 362.684 273.129 362.748 273.133
C 362.939 273.146 363.377 273.354 363.322 273.171
C 360.042 271.259 357.244 268.58 353.981 266.587
C 349.681 263.96 345.041 262.063 340.238 260.573
C 327.393 256.59 313.758 257.66 300.498 257.679
C 283.035 257.705 265.406 257.025 247.968 257.87
C 247.226 256.806 248.396 252.943 248.653 251.664
C 249.882 245.552 251.536 239.731 253.797 233.917
C 263.361 209.333 283.938 188.706 307.93 178.091
C 316.959 174.097 326.797 171.241 336.611 170.046
C 350.293 168.38 364.182 169.528 377.481 173.094
C 407.805 181.226 432.977 204.555 445.946 232.773
C 451.101 243.989 454.272 256.717 455.144 269.021
C 455.541 274.631 454.448 280.281 454.805 285.835 Z"
opacity="1" fill="rgb(11,25,73)" fill-rule="evenodd" />
<path d="
M 284.937 586.434
C 287.791 586.463 290.654 586.445 293.51 586.419
C 294.631 586.409 296.292 586.09 297.335 586.494
C 297.418 591.154 297.255 595.837 297.275 600.502
C 297.288 603.669 297.273 606.837 297.333 610.003
C 297.369 611.949 297.301 614.099 298.216 615.878
C 301.2 621.677 309.967 618.969 311.9 613.815
C 312.676 611.745 312.327 609.174 312.326 607.007
C 312.323 602.505 312.364 598.004 312.404 593.502
C 312.418 592.002 312.428 590.501 312.428 589.001
C 312.428 588.514 312.22 587.483 312.436 587.053
C 312.923 586.08 314.592 586.491 315.507 586.493
C 318.619 586.498 321.84 586.577 324.942 586.381
C 325.225 587.625 324.941 589.208 324.947 590.501
C 324.961 593.67 324.968 596.839 324.971 600.007
C 324.981 609.592 325.137 619.179 325.123 628.764
C 321.177 628.947 317.199 628.403 313.244 628.703
C 312.886 626.634 313.346 624.472 313.026 622.417
C 310.51 624.535 309.172 627.024 305.913 628.361
C 298.159 631.54 287.905 629.141 285.341 620.377
C 284.244 616.628 284.672 612.366 284.666 608.507
C 284.653 601.233 284.752 593.943 284.569 586.673
C 284.692 586.593 284.815 586.513 284.937 586.434 Z"
opacity="1" fill="rgb(11,22,70)" fill-rule="evenodd" />
<path d="
M 333.474 605.113
C 334.201 600.64 335.042 596.39 337.733 592.603
C 342.776 585.505 352.989 583.201 360.433 587.871
C 362.593 589.226 363.484 591.252 364.963 593.17
C 365.384 590.826 364.874 587.91 364.892 585.497
C 364.932 580.15 365.084 574.767 364.918 569.424
C 366.103 568.986 367.541 569.252 368.789 569.256
C 371.613 569.265 374.445 569.322 377.266 569.187
C 378.015 583.208 377.378 597.457 377.351 611.5
C 377.343 615.499 377.348 619.499 377.333 623.499
C 377.326 625.13 376.964 627.238 377.322 628.803
C 373.431 628.53 369.48 628.702 365.583 628.725
C 365.409 626.691 365.747 624.391 365.266 622.434
C 363.439 624.61 361.875 626.744 359.305 628.089
C 357.506 629.03 355.486 629.547 353.476 629.76
C 339.673 631.223 332.388 617.047 333.474 605.113 Z
M 346.43 604.089
C 345.507 608.535 346.209 614.643 349.904 617.698
C 354.912 621.838 363.106 618.966 364.458 612.694
C 365.42 608.234 365.291 601.751 361.815 598.345
C 356.1 592.743 347.874 597.139 346.43 604.089 Z"
opacity="1" fill="rgb(10,21,69)" fill-rule="evenodd" />
<path d="
M 454.805 285.835
C 456.59 285.06 457.883 282.036 459.111 280.51
C 464.219 274.164 467.499 266.516 469.286 258.606
C 471.809 247.438 471.281 235.882 470.974 224.499
C 470.645 212.353 470.942 200.151 470.955 187.999
C 470.961 182.177 470.375 175.919 471.177 170.149
C 483.267 171.392 495.163 175.46 505.725 181.444
C 522.413 190.898 536.483 204.249 546.474 220.663
C 567.956 255.959 566.046 302.53 542.173 336.157
C 527.692 356.554 504.989 372.305 480.373 377.488
C 474.433 378.739 468.291 379.583 462.222 379.739
C 459.191 379.817 454.962 378.895 452.101 379.849
C 454.665 382.769 458.176 385.067 461.53 386.992
C 469.143 391.361 477.361 394.028 486.089 395.033
C 490.691 395.563 495.383 395.29 500.005 395.28
C 522.03 395.232 544.208 394.528 566.216 395.293
C 566.286 396.452 565.825 397.769 565.666 398.928
C 565.177 402.497 564.3 406.12 563.235 409.56
C 559.302 422.255 553.165 434.089 544.622 444.306
C 534.506 456.405 522.082 466.51 507.789 473.311
C 481.484 485.827 449.933 486.209 423.225 474.65
C 408.929 468.462 396.484 459.141 385.933 447.764
C 372.656 433.446 363.517 413.879 360.36 394.674
C 359.173 387.45 358.796 380.117 358.876 372.798
C 358.897 370.884 358.997 368.952 359.126 367.044
C 359.161 366.529 359.412 365.67 358.967 365.318
C 360.778 362.959 363.447 361.213 365.702 359.302
C 369.485 356.096 373.352 352.99 377.156 349.81
C 383.217 344.741 389.396 339.812 395.423 334.703
C 399.004 331.667 402.613 328.38 406.519 325.768
C 410.47 321.9 415.162 318.748 419.421 315.227
C 426.599 309.292 433.789 303.37 440.977 297.447
C 443.965 294.985 446.902 292.462 449.888 289.998
C 451.5 288.668 453.569 287.547 454.805 285.835 Z"
opacity="1" fill="rgb(8,140,217)" fill-rule="evenodd" />
<path d="
M 385.966 604.098
C 387.065 599.148 388.728 594.317 392.6 590.788
C 401.168 582.978 416.061 583.85 423.284 592.992
C 427.41 598.213 428.128 604.751 427.827 611.189
C 417.832 610.892 407.743 611.743 397.759 611.292
C 397.92 612.654 398.295 613.91 398.941 615.122
C 402.982 622.704 413.33 621.319 418.143 615.49
C 418.983 615.357 420.056 616.781 420.728 617.316
C 422.609 618.817 424.716 619.709 426.767 620.891
C 425.71 622.767 423.262 624.339 421.536 625.57
C 413.561 631.258 401.255 631.389 393.49 625.246
C 387.143 620.225 384.876 611.921 385.966 604.098 Z
M 397.957 602.07
C 397.822 602.611 397.667 603.146 397.516 603.682
C 401.5 603.568 405.518 603.767 409.506 603.759
C 411.652 603.755 414.198 603.389 416.295 603.799
C 415.788 601.363 414.98 598.549 413.046 596.821
C 409.553 593.7 403.582 594.379 400.402 597.595
C 399.128 598.883 398.618 600.437 397.957 602.07 Z"
opacity="1" fill="rgb(10,19,66)" fill-rule="evenodd" />
<path d="
M 435.989 587.606
C 435.986 587.427 435.983 587.249 435.979 587.071
C 436.904 586.248 438.287 586.573 439.499 586.571
C 442.272 586.565 445.045 586.478 447.818 586.507
C 448.568 588.434 448.044 591.212 448.185 593.283
C 448.668 593.448 448.883 592.532 449.084 592.22
C 449.989 590.814 451.165 589.531 452.464 588.481
C 455.424 586.089 459.429 585.37 463.146 585.538
C 469.174 585.811 474.338 589.366 476.026 595.259
C 476.907 598.335 476.692 601.93 476.699 605.099
C 476.711 610.234 476.727 615.369 476.728 620.504
C 476.728 623.274 476.633 626.069 476.749 628.835
C 472.687 628.598 468.584 628.768 464.523 628.819
C 464.155 628.411 464.322 627.559 464.312 627.01
C 464.28 625.175 464.286 623.34 464.287 621.505
C 464.288 616.856 464.304 612.207 464.299 607.558
C 464.296 605.226 464.577 602.491 463.484 600.347
C 460.529 594.55 451.942 595.538 449.318 601.096
C 448.046 603.79 448.603 607.519 448.582 610.433
C 448.538 616.588 448.241 622.783 448.39 628.932
C 445.558 628.65 442.64 628.797 439.795 628.805
C 438.744 628.808 436.91 629.177 436.018 628.685
C 435.66 622.822 435.921 616.872 435.939 610.997
C 435.964 603.211 435.828 595.381 435.989 587.606 Z"
opacity="1" fill="rgb(9,19,65)" fill-rule="evenodd" />
<path d="
M 483.036 586.542
C 485.265 586.433 487.569 586.621 489.783 586.39
C 489.598 582.484 489.823 578.569 489.64 574.662
C 493.751 574.312 497.892 574.717 502.006 574.527
C 502.446 575.323 502.176 576.607 502.175 577.492
C 502.173 579.495 502.259 581.497 502.234 583.5
C 502.224 584.259 501.947 585.887 502.396 586.435
C 505.592 586.026 508.952 586.255 512.17 586.274
C 512.608 588.467 512.239 590.992 512.293 593.23
C 512.31 593.945 512.634 595.493 512.322 596.114
C 509.956 596.291 507.398 595.944 505.006 595.931
C 504.177 595.926 502.93 595.694 502.224 596.174
C 502.274 600.667 502.248 605.165 502.281 609.659
C 502.298 611.942 501.976 614.605 502.631 616.817
C 503.684 620.378 508.147 619.594 510.652 618.173
C 511.44 620.82 512.717 624.137 512.946 626.865
C 511.026 628.688 508.1 629.009 505.626 629.46
C 503.629 629.823 501.536 629.735 499.547 629.337
C 497.847 628.997 496.19 628.441 494.71 627.523
C 488.749 623.827 489.838 615.391 489.834 609.417
C 489.833 607.446 489.834 605.476 489.835 603.505
C 489.837 601.55 490.53 597.881 489.67 596.151
C 487.566 596.139 485.441 595.985 483.34 596.058
C 482.414 593.33 483.087 589.419 483.036 586.542 Z"
opacity="1" fill="rgb(10,21,66)" fill-rule="evenodd" />
<path d="
M 537.941 597.605
C 538.802 591.07 541.044 584.896 545.673 580.033
C 554.851 570.392 572.078 568.594 582.836 576.688
C 586.53 579.467 588.657 583.525 590.709 587.558
C 587.942 588.81 585.301 590.215 582.446 591.287
C 581.592 591.608 580.599 592.301 579.685 592.298
C 576.301 582.647 563.21 580.184 555.991 587.063
C 551.368 591.469 550.434 598.582 551.339 604.61
C 552.112 609.758 555.168 614.855 559.896 617.238
C 567.324 620.982 577.602 617.375 579.801 609.103
C 582.148 610.185 584.355 611.568 586.734 612.627
C 588.03 613.203 589.882 613.625 590.928 614.582
C 589.477 617.561 587.761 620.55 585.331 622.852
C 575.493 632.174 558.512 632.402 548.111 623.859
C 540.446 617.563 537.167 607.289 537.941 597.605 Z"
opacity="1" fill="rgb(11,144,223)" fill-rule="evenodd" />
<path d="
M 595.939 604.593
C 596.807 598.049 600.299 592.063 605.972 588.568
C 618.273 580.989 636.164 587.124 639.7 601.368
C 640.495 604.569 640.721 607.992 640.226 611.265
C 639.398 616.734 636.819 622.069 632.315 625.422
C 620.595 634.146 601.504 629.969 596.726 615.487
C 595.587 612.035 595.465 608.168 595.939 604.593 Z
M 608.918 604.093
C 608.08 608.568 608.535 614.409 612.039 617.708
C 617.803 623.133 626.105 618.137 627.42 611.433
C 628.316 606.859 627.627 601.04 623.951 597.784
C 618.197 592.687 610.167 597.429 608.918 604.093 Z"
opacity="1" fill="rgb(12,144,224)" fill-rule="evenodd" />
<path d="
M 647.78 600.262
C 650.197 599.715 653.03 600.076 655.51 600.077
C 660.908 600.078 666.332 600.239 671.727 600.064
C 671.875 603.451 671.021 607.455 671.769 610.752
C 665.866 610.499 659.912 610.739 654.003 610.716
C 652.486 610.71 650.964 610.649 649.448 610.727
C 648.924 610.755 648.236 610.962 647.782 610.657
C 647.989 607.227 648.012 603.69 647.78 600.262 Z"
opacity="1" fill="rgb(14,147,226)" fill-rule="evenodd" />
<path d="
M 679.442 602.582
C 682.566 586.568 702.921 580.129 715.528 590.016
C 722.305 595.331 724.623 604.551 723.082 612.761
C 720.272 627.731 701.77 634.175 689.213 626.869
C 680.798 621.973 677.641 611.81 679.442 602.582 Z
M 691.946 604.096
C 691.143 608.418 691.643 614.252 695.062 617.401
C 698.488 620.558 704.271 620.523 707.642 617.267
C 709.329 615.637 710.196 613.179 710.596 610.922
C 711.384 606.48 710.644 600.853 707.067 597.697
C 701.279 592.59 693.191 597.391 691.946 604.096 Z"
opacity="1" fill="rgb(11,143,221)" fill-rule="evenodd" />
<path d="
M 731.957 587.613
C 732.018 586.952 732.007 587.357 731.9 586.4
C 735.839 586.115 740.072 586.115 744.013 586.379
C 743.998 588.466 743.933 590.99 744.372 593.027
C 745.366 592.335 745.878 591.153 746.682 590.269
C 748.654 588.098 751.106 586.497 754.017 585.928
C 756.586 585.426 759.257 585.387 761.83 585.887
C 769.045 587.287 773.701 593.082 775.523 599.935
C 778.728 611.994 774.063 628.073 759.959 629.769
C 757.872 630.02 755.749 629.9 753.708 629.394
C 751.252 628.784 748.851 627.418 747.183 625.505
C 746.308 624.503 745.551 623.027 744.54 622.205
C 745.44 627.461 744.816 633.176 744.797 638.503
C 744.792 640.135 744.176 643.229 744.763 644.686
C 741.855 644.523 738.917 644.566 736.003 644.563
C 734.744 644.562 733.119 644.874 731.913 644.574
C 731.812 635.783 732.084 626.98 732.021 618.186
C 731.949 608.02 731.579 597.772 731.957 587.613 Z
M 744.901 603.584
C 743.96 608.207 744.702 614.568 748.48 617.803
C 754.126 622.638 761.915 618.189 763.263 611.644
C 764.215 607.022 763.617 600.984 759.881 597.691
C 754.36 592.825 746.246 596.973 744.901 603.584 Z"
opacity="1" fill="rgb(13,144,223)" fill-rule="evenodd" />

</svg>